<?xml version="1.0" encoding="UTF-8"?>
<svg width="8321px" height="5811px" viewBox="0 0 8321 5811" version="1.1" xmlns="http://www.w3.org/2000/svg" xmlns:xlink="http://www.w3.org/1999/xlink">
    <!-- Generator: Sketch 53.2 (72643) - https://sketchapp.com -->
    <title>Group 12</title>
    <desc>Created with Sketch.</desc>
    <g id="Page-1" stroke="none" stroke-width="1" fill="none" fill-rule="evenodd" opacity="0.488490513">
        <g id="Group-12">
            <g id="Group-11" transform="translate(40.000000, 3012.000000)">
                <g id="Group-10">
                    <g id="Group-9">
                        <rect id="Rectangle-Copy-20" fill="#3670C6" transform="translate(900.793303, 2693.095598) rotate(140.000000) translate(-900.793303, -2693.095598) " x="846.793303" y="2669.0956" width="108" height="48"></rect>
                        <polygon id="Rectangle-Copy-21" fill="#3670C6" transform="translate(2586.793303, 1570.095598) rotate(140.000000) translate(-2586.793303, -1570.095598) " points="2532.7933 1546.0956 2640.7933 1546.0956 2640.7933 1594.0956 2579.54105 1594.0956 2532.7933 1594.0956"></polygon>
                        <polygon id="Rectangle-Copy-22" fill="#3670C6" transform="translate(8223.793303, 2583.095598) rotate(140.000000) translate(-8223.793303, -2583.095598) " points="8169.7933 2559.0956 8277.7933 2559.0956 8277.7933 2607.0956 8216.54105 2607.0956 8169.7933 2607.0956"></polygon>
                        <rect id="Rectangle-Copy-17" fill="#3670C6" transform="translate(5402.000000, 1031.000000) rotate(90.000000) translate(-5402.000000, -1031.000000) " x="5348" y="1007" width="108" height="48"></rect>
                        <circle id="Oval-Copy-11" fill="#27C3A4" cx="3522.5" cy="2307.5" r="58.5"></circle>
                        <circle id="Oval-Copy-8" fill="#27C3A4" cx="4211.5" cy="1308.5" r="30.5"></circle>
                        <circle id="Oval-Copy-12" fill="#27C3A4" cx="1350" cy="1734" r="99"></circle>
                        <circle id="Oval-Copy-13" fill="#27C3A4" cx="6422" cy="1438" r="99"></circle>
                        <polygon id="Triangle-Copy-6" fill="#FF8333" transform="translate(4602.838091, 2248.838091) rotate(78.000000) translate(-4602.838091, -2248.838091) " points="4602.83809 2179.83809 4671.83809 2317.83809 4533.83809 2317.83809"></polygon>
                        <polygon id="Triangle-Copy-7" fill="#FF8333" transform="translate(81.838091, 1552.838091) rotate(78.000000) translate(-81.838091, -1552.838091) " points="81.8380911 1483.83809 150.838091 1621.83809 12.8380911 1621.83809"></polygon>
                        <rect id="Rectangle-Copy-25" fill="#F64E49" transform="translate(2257.714300, 73.714300) rotate(-18.000000) translate(-2257.714300, -73.714300) " x="2199.2143" y="15.2143004" width="117" height="117"></rect>
                        <rect id="Rectangle-Copy-13" fill="#F64E49" transform="translate(4180.912486, 226.912486) rotate(30.000000) translate(-4180.912486, -226.912486) " x="4122.41249" y="168.412486" width="117" height="117"></rect>
                        <rect id="Rectangle-Copy-14" fill="#F64E49" transform="translate(7299.912486, 226.912486) rotate(30.000000) translate(-7299.912486, -226.912486) " x="7241.41249" y="168.412486" width="117" height="117"></rect>
                        <polygon id="Polygon-Copy-6" fill="#FFB433" points="2788.5 2688 2844.13681 2728.42251 2822.88544 2793.82749 2754.11456 2793.82749 2732.86319 2728.42251"></polygon>
                        <polygon id="Polygon-Copy-8" fill="#FFB433" points="6422.5 2693 6478.13681 2733.42251 6456.88544 2798.82749 6388.11456 2798.82749 6366.86319 2733.42251"></polygon>
                        <polygon id="Polygon-Copy-9" fill="#FFB433" points="1448.5 532 1504.13681 572.422506 1482.88544 637.827494 1414.11456 637.827494 1392.86319 572.422506"></polygon>
                        <polygon id="Polygon-Copy-11" fill="#FFB433" points="3081.5 610 3137.13681 650.422506 3115.88544 715.827494 3047.11456 715.827494 3025.86319 650.422506"></polygon>
                        <polygon id="Polygon-Copy-12" fill="#FFB433" points="5740.5 110 5796.13681 150.422506 5774.88544 215.827494 5706.11456 215.827494 5684.86319 150.422506"></polygon>
                    </g>
                </g>
            </g>
            <g id="Group-10-Copy-2">
                <g id="Group-10-Copy">
                    <g id="Group-9">
                        <rect id="Rectangle-Copy-20" fill="#3670C6" transform="translate(900.793303, 2693.095598) rotate(140.000000) translate(-900.793303, -2693.095598) " x="846.793303" y="2669.0956" width="108" height="48"></rect>
                        <polygon id="Rectangle-Copy-21" fill="#3670C6" transform="translate(463.793303, 280.095598) rotate(140.000000) translate(-463.793303, -280.095598) " points="409.793303 256.095598 517.793303 256.095598 517.793303 304.095598 456.54105 304.095598 409.793303 304.095598"></polygon>
                        <polygon id="Rectangle-Copy-23" fill="#3670C6" transform="translate(2789.793303, 1681.095598) rotate(140.000000) translate(-2789.793303, -1681.095598) " points="2735.7933 1657.0956 2843.7933 1657.0956 2843.7933 1705.0956 2782.54105 1705.0956 2735.7933 1705.0956"></polygon>
                        <polygon id="Rectangle-Copy-22" fill="#3670C6" transform="translate(8223.793303, 2583.095598) rotate(140.000000) translate(-8223.793303, -2583.095598) " points="8169.7933 2559.0956 8277.7933 2559.0956 8277.7933 2607.0956 8216.54105 2607.0956 8169.7933 2607.0956"></polygon>
                        <rect id="Rectangle-Copy-17" fill="#3670C6" transform="translate(5402.000000, 1031.000000) rotate(90.000000) translate(-5402.000000, -1031.000000) " x="5348" y="1007" width="108" height="48"></rect>
                        <rect id="Rectangle-Copy-17" fill="#3670C6" transform="translate(5402.000000, 1031.000000) rotate(90.000000) translate(-5402.000000, -1031.000000) " x="5348" y="1007" width="108" height="48"></rect>
                        <circle id="Oval-Copy-11" fill="#27C3A4" cx="3522.5" cy="2307.5" r="58.5"></circle>
                        <circle id="Oval-Copy-8" fill="#27C3A4" cx="4211.5" cy="1308.5" r="30.5"></circle>
                        <circle id="Oval-Copy-12" fill="#27C3A4" cx="1350" cy="1734" r="99"></circle>
                        <circle id="Oval-Copy-13" fill="#27C3A4" cx="6422" cy="1438" r="99"></circle>
                        <polygon id="Triangle-Copy-6" fill="#FF8333" transform="translate(4602.838091, 2248.838091) rotate(78.000000) translate(-4602.838091, -2248.838091) " points="4602.83809 2179.83809 4671.83809 2317.83809 4533.83809 2317.83809"></polygon>
                        <polygon id="Triangle-Copy-7" fill="#FF8333" transform="translate(81.838091, 1552.838091) rotate(78.000000) translate(-81.838091, -1552.838091) " points="81.8380911 1483.83809 150.838091 1621.83809 12.8380911 1621.83809"></polygon>
                        <rect id="Rectangle-Copy-25" fill="#F64E49" transform="translate(2257.714300, 73.714300) rotate(-18.000000) translate(-2257.714300, -73.714300) " x="2199.2143" y="15.2143004" width="117" height="117"></rect>
                        <rect id="Rectangle-Copy-13" fill="#F64E49" transform="translate(4180.912486, 226.912486) rotate(30.000000) translate(-4180.912486, -226.912486) " x="4122.41249" y="168.412486" width="117" height="117"></rect>
                        <rect id="Rectangle-Copy-14" fill="#F64E49" transform="translate(7299.912486, 226.912486) rotate(30.000000) translate(-7299.912486, -226.912486) " x="7241.41249" y="168.412486" width="117" height="117"></rect>
                        <polygon id="Polygon-Copy-6" fill="#FFB433" points="2788.5 2688 2844.13681 2728.42251 2822.88544 2793.82749 2754.11456 2793.82749 2732.86319 2728.42251"></polygon>
                        <polygon id="Polygon-Copy-8" fill="#FFB433" points="6422.5 2693 6478.13681 2733.42251 6456.88544 2798.82749 6388.11456 2798.82749 6366.86319 2733.42251"></polygon>
                        <polygon id="Polygon-Copy-9" fill="#FFB433" points="1448.5 532 1504.13681 572.422506 1482.88544 637.827494 1414.11456 637.827494 1392.86319 572.422506"></polygon>
                        <polygon id="Polygon-Copy-11" fill="#FFB433" points="3081.5 610 3137.13681 650.422506 3115.88544 715.827494 3047.11456 715.827494 3025.86319 650.422506"></polygon>
                        <polygon id="Polygon-Copy-12" fill="#FFB433" points="5740.5 110 5796.13681 150.422506 5774.88544 215.827494 5706.11456 215.827494 5684.86319 150.422506"></polygon>
                    </g>
                </g>
            </g>
        </g>
    </g>
</svg>