<svg width="48" height="48" xmlns="http://www.w3.org/2000/svg">

 <g>
  <title>background</title>
  <rect fill="none" id="canvas_background" height="402" width="582" y="-1" x="-1"/>
 </g>
 <g>
  <title>Layer 1</title>
  <path id="svg_3" fill="#EF4B53" d="m35.72935,25.74662l0.8357,-0.8271c1.611,-1.611 2.4122,-3.7475 2.4122,-5.8668c0,-2.1279 -0.8012,-4.2558 -2.4122,-5.8668c-3.2221,-3.2221 -8.5031,-3.2221 -11.7337,0l-0.8271,0.8356l-0.8356,-0.8356c-3.222,-3.2221 -8.5031,-3.2221 -11.7251,0c-1.6196,1.611 -2.4208,3.7389 -2.4208,5.8668c0,2.1193 0.8012,4.2558 2.4208,5.8668l0.8271,0.8271l11.3076,11.3077c0.2353,0.2352 0.6167,0.2351 0.8519,-0.0002l11.2992,-11.3075"/>
 </g>
</svg>