<?xml version="1.0" encoding="UTF-8"?>
<svg width="1095px" height="589px" viewBox="0 0 1095 589" version="1.1" xmlns="http://www.w3.org/2000/svg" xmlns:xlink="http://www.w3.org/1999/xlink">
    <!-- Generator: Sketch 53.2 (72643) - https://sketchapp.com -->
    <title>Group</title>
    <desc>Created with Sketch.</desc>
    <g id="Page-1" stroke="none" stroke-width="1" fill="none" fill-rule="evenodd">
        <g id="Group" transform="translate(-25.017363, -42.846200)">
            <path d="M37,323.649442 L146.236367,308.297273 L276.43909,352.84871 C314.750708,365.957788 335.181404,407.642498 322.072326,445.954116 C320.528127,450.467078 318.547215,454.81858 316.157753,458.946757 L315.789507,459.582961 C302.679694,482.23226 273.691207,489.965541 251.041909,476.855728 C242.953002,472.173726 236.42933,465.20418 232.291544,456.823831 L232.291544,456.823831 C220.203096,432.340832 230.250864,402.693817 254.733863,390.605369 C262.93855,386.554316 272.106526,384.859716 281.217211,385.710212 L433.57911,399.933419 C459.833484,402.384304 485.825367,393.082859 504.563676,374.530911 L524.367628,354.923919 C530.843447,348.512505 538.165244,343.016348 546.129712,338.588061 L566.547425,327.235703 C584.148233,317.449558 604.293661,313.205568 624.346611,315.059283 L701.685411,322.208559 C756.679415,327.292259 797.139709,375.994861 792.056009,430.988865 C792.038491,431.178369 792.020432,431.367823 792.001832,431.557225 L790.272662,449.165482 C785.215009,500.667895 739.364016,538.318811 687.861604,533.261158 C680.681262,532.556032 673.606384,531.023964 666.777596,528.695408 L656.479093,525.183708 C610.839306,509.620942 586.457065,460.00647 602.019831,414.366684 C605.617407,403.816335 611.201971,394.052473 618.471843,385.60254 L856.632913,108.782691 C892.652393,66.9164574 955.791239,62.176727 997.657472,98.1962069 C999.724873,99.9748881 1001.71864,101.837399 1003.63379,103.779069 L1101.56479,203.066569 C1138.07769,240.085228 1140.1292,298.908904 1106.28397,338.381344 L813.361367,680.006179" id="Line" stroke="#308C66" stroke-width="3" stroke-linecap="square" transform="translate(583.684871, 377.003089) scale(-1, -1) rotate(8.000000) translate(-583.684871, -377.003089) "></path>
            <circle id="Oval" fill="#E01E5A" cx="932.517363" cy="463.3462" r="21.5"></circle>
            <circle id="Oval" fill="#36C5EF" cx="206.517363" cy="214.3462" r="19.5"></circle>
            <circle id="Oval-Copy-4" fill="#36C5EF" cx="1072.51736" cy="506.3462" r="19.5"></circle>
            <circle id="Oval-Copy" fill="#308C66" cx="130.517363" cy="275.3462" r="12.5"></circle>
            <circle id="Oval-Copy-2" fill="#308C66" cx="281.517363" cy="149.3462" r="12.5"></circle>
            <circle id="Oval-Copy-3" fill="#308C66" cx="1006.51736" cy="502.3462" r="12.5"></circle>
        </g>
    </g>
</svg>