<?xml version="1.0" encoding="UTF-8"?>
<svg width="1438px" height="220px" viewBox="0 0 1438 220" version="1.1" xmlns="http://www.w3.org/2000/svg" xmlns:xlink="http://www.w3.org/1999/xlink">
    <!-- Generator: Sketch 53.2 (72643) - https://sketchapp.com -->
    <title>Group</title>
    <desc>Created with Sketch.</desc>
    <g id="Page-1" stroke="none" stroke-width="1" fill="none" fill-rule="evenodd">
        <g id="Group" transform="translate(1.000000, 1.000000)">
            <g id="Background">
                <g id="book-opened" transform="translate(374.000000, 31.000000)" stroke="#2329D6">
                    <path d="M18,4 C18,4 14,0 10,0 C6,0 0,4 0,4 L0,32 C0,32 6,28 10,28 C14,28 18,32 18,32 C20.666,29.334 23.334,28 26,28 C28.666,28 32,29.334 36,32 L36,4 C32,1.334 28.666,0 26,0 C23.334,0 20.666,1.334 18,4 Z" id="Path" stroke-linecap="square"></path>
                    <path d="M18,4 L18,32" id="Path" stroke-linecap="round"></path>
                </g>
                <g id="book-opened-copy" transform="translate(1381.000000, 64.000000)" stroke="#2329D6">
                    <path d="M18,4 C18,4 14,0 10,0 C6,0 0,4 0,4 L0,32 C0,32 6,28 10,28 C14,28 18,32 18,32 C20.666,29.334 23.334,28 26,28 C28.666,28 32,29.334 36,32 L36,4 C32,1.334 28.666,0 26,0 C23.334,0 20.666,1.334 18,4 Z" id="Path" stroke-linecap="square"></path>
                    <path d="M18,4 L18,32" id="Path" stroke-linecap="round"></path>
                </g>
                <g id="book" transform="translate(321.000000, 95.000000)" stroke="#2329D6" stroke-linecap="square">
                    <path d="M28,0 L28,36 L6,36 C2.6862915,36 0,33.3137085 0,30 L0,6 C0,2.6862915 2.6862915,0 6,0 L28,0 Z" id="Path"></path>
                    <path d="M0,30 C0,26.6862915 2.6862915,24 6,24 L28,24" id="Path"></path>
                </g>
                <g id="calendar" transform="translate(162.000000, 99.000000)" stroke="#2329D6" stroke-linecap="square">
                    <rect id="Rectangle" x="0" y="4" width="36" height="32"></rect>
                    <path d="M36,14 L0,14 M10,8 L10,0 M26,8 L26,0" id="Shape"></path>
                </g>
                <g id="calendar-copy" transform="translate(1149.000000, 23.000000)" stroke="#2329D6" stroke-linecap="square">
                    <rect id="Rectangle" x="0" y="4" width="36" height="32"></rect>
                    <path d="M36,14 L0,14 M10,8 L10,0 M26,8 L26,0" id="Shape"></path>
                </g>
                <g id="cards" transform="translate(72.000000, 52.000000)" stroke="#2329D6" stroke-linecap="square">
                    <rect id="Rectangle" x="0" y="0" width="26" height="26"></rect>
                    <polyline id="Path" points="26 10 36 10 36 36 10 36 10 26"></polyline>
                </g>
                <g id="cards-copy" transform="translate(951.000000, 20.000000)" stroke="#2329D6" stroke-linecap="square">
                    <rect id="Rectangle" x="0" y="0" width="26" height="26"></rect>
                    <polyline id="Path" points="26 10 36 10 36 36 10 36 10 26"></polyline>
                </g>
                <g id="cards-copy-2" transform="translate(693.000000, 22.000000)" stroke="#2329D6" stroke-linecap="square">
                    <rect id="Rectangle" x="0" y="0" width="26" height="26"></rect>
                    <polyline id="Path" points="26 10 36 10 36 36 10 36 10 26"></polyline>
                </g>
                <g id="cards-copy-3" transform="translate(1189.000000, 170.000000)" stroke="#2329D6" stroke-linecap="square">
                    <rect id="Rectangle" x="0" y="0" width="26" height="26"></rect>
                    <polyline id="Path" points="26 10 36 10 36 36 10 36 10 26"></polyline>
                </g>
                <g id="chart" transform="translate(778.000000, 13.000000)" stroke="#2329D6" stroke-linecap="square">
                    <polygon id="Path" points="0 18 0 36 8 36 8 18"></polygon>
                    <polygon id="Path" points="32 8 32 36 40 36 40 8"></polygon>
                    <polygon id="Path" points="16 0 16 36 24 36 24 0"></polygon>
                </g>
                <g id="chart-copy" transform="translate(90.000000, 168.000000)" stroke="#2329D6" stroke-linecap="square">
                    <polygon id="Path" points="0 18 0 36 8 36 8 18"></polygon>
                    <polygon id="Path" points="32 8 32 36 40 36 40 8"></polygon>
                    <polygon id="Path" points="16 0 16 36 24 36 24 0"></polygon>
                </g>
                <g id="chart-copy-2" transform="translate(481.000000, 178.000000)" stroke="#2329D6" stroke-linecap="square">
                    <polygon id="Path" points="0 18 0 36 8 36 8 18"></polygon>
                    <polygon id="Path" points="32 8 32 36 40 36 40 8"></polygon>
                    <polygon id="Path" points="16 0 16 36 24 36 24 0"></polygon>
                </g>
                <g id="chart-copy-4" transform="translate(1127.000000, 91.000000)" stroke="#2329D6" stroke-linecap="square">
                    <polygon id="Path" points="0 18 0 36 8 36 8 18"></polygon>
                    <polygon id="Path" points="32 8 32 36 40 36 40 8"></polygon>
                    <polygon id="Path" points="16 0 16 36 24 36 24 0"></polygon>
                </g>
                <g id="chart-copy-5" transform="translate(967.000000, 166.000000)" stroke="#2329D6" stroke-linecap="square">
                    <polygon id="Path" points="0 18 0 36 8 36 8 18"></polygon>
                    <polygon id="Path" points="32 8 32 36 40 36 40 8"></polygon>
                    <polygon id="Path" points="16 0 16 36 24 36 24 0"></polygon>
                </g>
                <g id="chart-copy-3" transform="translate(613.000000, 65.000000)" stroke="#2329D6" stroke-linecap="square">
                    <polygon id="Path" points="0 18 0 36 8 36 8 18"></polygon>
                    <polygon id="Path" points="32 8 32 36 40 36 40 8"></polygon>
                    <polygon id="Path" points="16 0 16 36 24 36 24 0"></polygon>
                </g>
                <g id="contact-book" transform="translate(693.000000, 152.000000)" stroke="#2329D6" stroke-linecap="square">
                    <path d="M6,0 L6,27" id="Path"></path>
                    <path d="M24,0 L24,27 L3,27 C1.34314575,27 0,25.6568543 0,24.0000002 L0,2.99999983 C0,1.34314567 1.34314575,0 3,0 L24,0 Z" id="Path"></path>
                    <path d="M6,21 C6,18.0967742 10.9999999,18.5806451 13.0000001,16.6451613 C13.9999999,15.6774193 10.9999999,15.6774193 10.9999999,10.8387097 C10.9999999,7.6132258 12.333,6 15,6 C17.667,6 19.0000001,7.6132258 19.0000001,10.8387097 C19.0000001,15.6774193 16.0000001,15.6774193 16.9999999,16.6451613 C19.0000001,18.5806451 24,18.0967742 24,21" id="Path"></path>
                </g>
                <g id="contact-book-copy-5" transform="translate(1037.000000, 38.000000)" stroke="#2329D6" stroke-linecap="square">
                    <path d="M6,0 L6,27" id="Path"></path>
                    <path d="M24,0 L24,27 L3,27 C1.34314575,27 0,25.6568543 0,24.0000002 L0,2.99999983 C0,1.34314567 1.34314575,0 3,0 L24,0 Z" id="Path"></path>
                    <path d="M6,21 C6,18.0967742 10.9999999,18.5806451 13.0000001,16.6451613 C13.9999999,15.6774193 10.9999999,15.6774193 10.9999999,10.8387097 C10.9999999,7.6132258 12.333,6 15,6 C17.667,6 19.0000001,7.6132258 19.0000001,10.8387097 C19.0000001,15.6774193 16.0000001,15.6774193 16.9999999,16.6451613 C19.0000001,18.5806451 24,18.0967742 24,21" id="Path"></path>
                </g>
                <g id="contact-book-copy" transform="translate(521.000000, 88.000000)" stroke="#2329D6" stroke-linecap="square">
                    <path d="M6,0 L6,27" id="Path"></path>
                    <path d="M24,0 L24,27 L3,27 C1.34314575,27 0,25.6568543 0,24.0000002 L0,2.99999983 C0,1.34314567 1.34314575,0 3,0 L24,0 Z" id="Path"></path>
                    <path d="M6,21 C6,18.0967742 10.9999999,18.5806451 13.0000001,16.6451613 C13.9999999,15.6774193 10.9999999,15.6774193 10.9999999,10.8387097 C10.9999999,7.6132258 12.333,6 15,6 C17.667,6 19.0000001,7.6132258 19.0000001,10.8387097 C19.0000001,15.6774193 16.0000001,15.6774193 16.9999999,16.6451613 C19.0000001,18.5806451 24,18.0967742 24,21" id="Path"></path>
                </g>
                <g id="contact-book-copy-6" transform="translate(1330.000000, 4.000000)" stroke="#2329D6" stroke-linecap="square">
                    <path d="M6,0 L6,27" id="Path"></path>
                    <path d="M24,0 L24,27 L3,27 C1.34314575,27 0,25.6568543 0,24.0000002 L0,2.99999983 C0,1.34314567 1.34314575,0 3,0 L24,0 Z" id="Path"></path>
                    <path d="M6,21 C6,18.0967742 10.9999999,18.5806451 13.0000001,16.6451613 C13.9999999,15.6774193 10.9999999,15.6774193 10.9999999,10.8387097 C10.9999999,7.6132258 12.333,6 15,6 C17.667,6 19.0000001,7.6132258 19.0000001,10.8387097 C19.0000001,15.6774193 16.0000001,15.6774193 16.9999999,16.6451613 C19.0000001,18.5806451 24,18.0967742 24,21" id="Path"></path>
                </g>
                <g id="contact-book-copy-2" transform="translate(350.000000, 173.000000)" stroke="#2329D6" stroke-linecap="square">
                    <path d="M6,0 L6,27" id="Path"></path>
                    <path d="M24,0 L24,27 L3,27 C1.34314575,27 0,25.6568543 0,24.0000002 L0,2.99999983 C0,1.34314567 1.34314575,0 3,0 L24,0 Z" id="Path"></path>
                    <path d="M6,21 C6,18.0967742 10.9999999,18.5806451 13.0000001,16.6451613 C13.9999999,15.6774193 10.9999999,15.6774193 10.9999999,10.8387097 C10.9999999,7.6132258 12.333,6 15,6 C17.667,6 19.0000001,7.6132258 19.0000001,10.8387097 C19.0000001,15.6774193 16.0000001,15.6774193 16.9999999,16.6451613 C19.0000001,18.5806451 24,18.0967742 24,21" id="Path"></path>
                </g>
                <g id="contact-book-copy-3" transform="translate(230.000000, 117.000000)" stroke="#2329D6" stroke-linecap="square">
                    <path d="M6,0 L6,27" id="Path"></path>
                    <path d="M24,0 L24,27 L3,27 C1.34314575,27 0,25.6568543 0,24.0000002 L0,2.99999983 C0,1.34314567 1.34314575,0 3,0 L24,0 Z" id="Path"></path>
                    <path d="M6,21 C6,18.0967742 10.9999999,18.5806451 13.0000001,16.6451613 C13.9999999,15.6774193 10.9999999,15.6774193 10.9999999,10.8387097 C10.9999999,7.6132258 12.333,6 15,6 C17.667,6 19.0000001,7.6132258 19.0000001,10.8387097 C19.0000001,15.6774193 16.0000001,15.6774193 16.9999999,16.6451613 C19.0000001,18.5806451 24,18.0967742 24,21" id="Path"></path>
                </g>
                <g id="contact-book-copy-4" transform="translate(138.000000, 13.000000)" stroke="#2329D6" stroke-linecap="square">
                    <path d="M6,0 L6,27" id="Path"></path>
                    <path d="M24,0 L24,27 L3,27 C1.34314575,27 0,25.6568543 0,24.0000002 L0,2.99999983 C0,1.34314567 1.34314575,0 3,0 L24,0 Z" id="Path"></path>
                    <path d="M6,21 C6,18.0967742 10.9999999,18.5806451 13.0000001,16.6451613 C13.9999999,15.6774193 10.9999999,15.6774193 10.9999999,10.8387097 C10.9999999,7.6132258 12.333,6 15,6 C17.667,6 19.0000001,7.6132258 19.0000001,10.8387097 C19.0000001,15.6774193 16.0000001,15.6774193 16.9999999,16.6451613 C19.0000001,18.5806451 24,18.0967742 24,21" id="Path"></path>
                </g>
                <g id="copy" transform="translate(484.000000, 13.000000)" stroke="#2329D6" stroke-linecap="square">
                    <rect id="Rectangle" x="8" y="8" width="24" height="28"></rect>
                    <polyline id="Path" points="24 0 0 0 0 28"></polyline>
                </g>
                <g id="copy-copy" transform="translate(1258.000000, 40.000000)" stroke="#2329D6" stroke-linecap="square">
                    <rect id="Rectangle" x="8" y="8" width="24" height="28"></rect>
                    <polyline id="Path" points="24 0 0 0 0 28"></polyline>
                </g>
                <g id="credit-card" transform="translate(234.000000, 47.000000)" stroke="#2329D6" stroke-linecap="square">
                    <rect id="Rectangle" x="0" y="0" width="40" height="28" rx="4"></rect>
                    <path d="M0,18 L40,18" id="Path"></path>
                </g>
                <g id="credit-card-copy" transform="translate(254.000000, 186.000000)" stroke="#2329D6" stroke-linecap="square">
                    <rect id="Rectangle" x="0" y="0" width="40" height="28" rx="4"></rect>
                    <path d="M0,18 L40,18" id="Path"></path>
                </g>
                <g id="credit-card-copy-2" transform="translate(7.000000, 190.000000)" stroke="#2329D6" stroke-linecap="square">
                    <rect id="Rectangle" x="0" y="0" width="40" height="28" rx="4"></rect>
                    <path d="M0,18 L40,18" id="Path"></path>
                </g>
                <g id="feed" transform="translate(23.000000, 111.000000)" stroke="#2329D6" stroke-linecap="square">
                    <circle id="Oval" cx="7" cy="7" r="3"></circle>
                    <path d="M24,13.5 L0,13.5" id="Path"></path>
                    <path d="M19,4.625 L13,4.625 M19,8.375 L13,8.375" id="Shape"></path>
                    <path d="M3.6,5.32907052e-16 L20.4,5.32907052e-16 C22.3882251,0 24,1.6117749 24,3.6 L24,24 L0,24 L0,3.6 C-1.0658141e-15,1.6117749 1.6117749,5.32907052e-16 3.6,5.32907052e-16 Z" id="Path"></path>
                </g>
                <g id="feed-copy-3" transform="translate(438.000000, 49.000000)" stroke="#2329D6" stroke-linecap="square">
                    <circle id="Oval" cx="7" cy="7" r="3"></circle>
                    <path d="M24,13.5 L0,13.5" id="Path"></path>
                    <path d="M19,4.625 L13,4.625 M19,8.375 L13,8.375" id="Shape"></path>
                    <path d="M3.6,5.32907052e-16 L20.4,5.32907052e-16 C22.3882251,0 24,1.6117749 24,3.6 L24,24 L0,24 L0,3.6 C-1.0658141e-15,1.6117749 1.6117749,5.32907052e-16 3.6,5.32907052e-16 Z" id="Path"></path>
                </g>
                <g id="feed-copy-4" transform="translate(294.000000, 7.000000)" stroke="#2329D6" stroke-linecap="square">
                    <circle id="Oval" cx="7" cy="7" r="3"></circle>
                    <path d="M24,13.5 L0,13.5" id="Path"></path>
                    <path d="M19,4.625 L13,4.625 M19,8.375 L13,8.375" id="Shape"></path>
                    <path d="M3.6,5.32907052e-16 L20.4,5.32907052e-16 C22.3882251,0 24,1.6117749 24,3.6 L24,24 L0,24 L0,3.6 C-1.0658141e-15,1.6117749 1.6117749,5.32907052e-16 3.6,5.32907052e-16 Z" id="Path"></path>
                </g>
                <g id="feed-copy-5" transform="translate(786.000000, 101.000000)" stroke="#2329D6" stroke-linecap="square">
                    <circle id="Oval" cx="7" cy="7" r="3"></circle>
                    <path d="M24,13.5 L0,13.5" id="Path"></path>
                    <path d="M19,4.625 L13,4.625 M19,8.375 L13,8.375" id="Shape"></path>
                    <path d="M3.6,5.32907052e-16 L20.4,5.32907052e-16 C22.3882251,0 24,1.6117749 24,3.6 L24,24 L0,24 L0,3.6 C-1.0658141e-15,1.6117749 1.6117749,5.32907052e-16 3.6,5.32907052e-16 Z" id="Path"></path>
                </g>
                <g id="feed-copy-6" transform="translate(883.000000, 7.000000)" stroke="#2329D6" stroke-linecap="square">
                    <circle id="Oval" cx="7" cy="7" r="3"></circle>
                    <path d="M24,13.5 L0,13.5" id="Path"></path>
                    <path d="M19,4.625 L13,4.625 M19,8.375 L13,8.375" id="Shape"></path>
                    <path d="M3.6,5.32907052e-16 L20.4,5.32907052e-16 C22.3882251,0 24,1.6117749 24,3.6 L24,24 L0,24 L0,3.6 C-1.0658141e-15,1.6117749 1.6117749,5.32907052e-16 3.6,5.32907052e-16 Z" id="Path"></path>
                </g>
                <g id="feed-copy-9" transform="translate(1093.000000, 8.000000)" stroke="#2329D6" stroke-linecap="square">
                    <circle id="Oval" cx="7" cy="7" r="3"></circle>
                    <path d="M24,13.5 L0,13.5" id="Path"></path>
                    <path d="M19,4.625 L13,4.625 M19,8.375 L13,8.375" id="Shape"></path>
                    <path d="M3.6,5.32907052e-16 L20.4,5.32907052e-16 C22.3882251,0 24,1.6117749 24,3.6 L24,24 L0,24 L0,3.6 C-1.0658141e-15,1.6117749 1.6117749,5.32907052e-16 3.6,5.32907052e-16 Z" id="Path"></path>
                </g>
                <g id="feed-copy-8" transform="translate(1225.000000, 97.000000)" stroke="#2329D6" stroke-linecap="square">
                    <circle id="Oval" cx="7" cy="7" r="3"></circle>
                    <path d="M24,13.5 L0,13.5" id="Path"></path>
                    <path d="M19,4.625 L13,4.625 M19,8.375 L13,8.375" id="Shape"></path>
                    <path d="M3.6,5.32907052e-16 L20.4,5.32907052e-16 C22.3882251,0 24,1.6117749 24,3.6 L24,24 L0,24 L0,3.6 C-1.0658141e-15,1.6117749 1.6117749,5.32907052e-16 3.6,5.32907052e-16 Z" id="Path"></path>
                </g>
                <g id="feed-copy" transform="translate(599.000000, 0.000000)" stroke="#2329D6" stroke-linecap="square">
                    <circle id="Oval" cx="11" cy="11" r="5"></circle>
                    <path d="M40,22 L0,22" id="Path"></path>
                    <path d="M32,8 L22,8 M32,14 L22,14" id="Shape"></path>
                    <path d="M6,8.8817842e-16 L34,8.8817842e-16 C37.3137085,0 40,2.6862915 40,6 L40,40 L0,40 L0,6 C-1.77635684e-15,2.6862915 2.6862915,8.8817842e-16 6,8.8817842e-16 Z" id="Path"></path>
                </g>
                <g id="feed-copy-10" transform="translate(1328.000000, 166.000000)" stroke="#2329D6" stroke-linecap="square">
                    <circle id="Oval" cx="11" cy="11" r="5"></circle>
                    <path d="M40,22 L0,22" id="Path"></path>
                    <path d="M32,8 L22,8 M32,14 L22,14" id="Shape"></path>
                    <path d="M6,8.8817842e-16 L34,8.8817842e-16 C37.3137085,0 40,2.6862915 40,6 L40,40 L0,40 L0,6 C-1.77635684e-15,2.6862915 2.6862915,8.8817842e-16 6,8.8817842e-16 Z" id="Path"></path>
                </g>
                <g id="feed-copy-7" transform="translate(997.000000, 95.000000)" stroke="#2329D6" stroke-linecap="square">
                    <circle id="Oval" cx="11" cy="11" r="5"></circle>
                    <path d="M40,22 L0,22" id="Path"></path>
                    <path d="M32,8 L22,8 M32,14 L22,14" id="Shape"></path>
                    <path d="M6,8.8817842e-16 L34,8.8817842e-16 C37.3137085,0 40,2.6862915 40,6 L40,40 L0,40 L0,6 C-1.77635684e-15,2.6862915 2.6862915,8.8817842e-16 6,8.8817842e-16 Z" id="Path"></path>
                </g>
                <g id="feed-copy-2" transform="translate(770.000000, 168.000000)" stroke="#2329D6" stroke-linecap="square">
                    <circle id="Oval" cx="11" cy="11" r="5"></circle>
                    <path d="M40,22 L0,22" id="Path"></path>
                    <path d="M32,8 L22,8 M32,14 L22,14" id="Shape"></path>
                    <path d="M6,8.8817842e-16 L34,8.8817842e-16 C37.3137085,0 40,2.6862915 40,6 L40,40 L0,40 L0,6 C-1.77635684e-15,2.6862915 2.6862915,8.8817842e-16 6,8.8817842e-16 Z" id="Path"></path>
                </g>
                <g id="horn" transform="translate(604.000000, 136.000000)" stroke="#2329D6" stroke-linecap="square">
                    <path d="M5,10 C8.66666666,10 12.3333334,10 16,10 C20,10 24.6666666,6.66666666 30,0 L30,30 C24.6666666,23.3333334 20,20 16,20 C12.3333334,20 8.66666666,20 5,20 L5,20 C2.23857626,20 0,17.7614238 0,15 L0,15 C0,12.2385762 2.23857626,10 5,10 Z" id="Path" stroke-linejoin="round"></path>
                    <polygon id="Path" points="6 20 10 32 18 32 14 20"></polygon>
                    <path d="M14,10 L14,20" id="Path"></path>
                </g>
                <g id="horn-copy-3" transform="translate(1300.000000, 97.000000)" stroke="#2329D6" stroke-linecap="square">
                    <path d="M5,10 C8.66666666,10 12.3333334,10 16,10 C20,10 24.6666666,6.66666666 30,0 L30,30 C24.6666666,23.3333334 20,20 16,20 C12.3333334,20 8.66666666,20 5,20 L5,20 C2.23857626,20 0,17.7614238 0,15 L0,15 C0,12.2385762 2.23857626,10 5,10 Z" id="Path" stroke-linejoin="round"></path>
                    <polygon id="Path" points="6 20 10 32 18 32 14 20"></polygon>
                    <path d="M14,10 L14,20" id="Path"></path>
                </g>
                <g id="horn-copy-2" transform="translate(1075.000000, 168.000000)" stroke="#2329D6" stroke-linecap="square">
                    <path d="M5,10 C8.66666666,10 12.3333334,10 16,10 C20,10 24.6666666,6.66666666 30,0 L30,30 C24.6666666,23.3333334 20,20 16,20 C12.3333334,20 8.66666666,20 5,20 L5,20 C2.23857626,20 0,17.7614238 0,15 L0,15 C0,12.2385762 2.23857626,10 5,10 Z" id="Path" stroke-linejoin="round"></path>
                    <polygon id="Path" points="6 20 10 32 18 32 14 20"></polygon>
                    <path d="M14,10 L14,20" id="Path"></path>
                </g>
                <g id="horn-copy" transform="translate(0.000000, 24.000000)" stroke="#2329D6" stroke-linecap="square">
                    <path d="M5,10 C8.66666666,10 12.3333334,10 16,10 C20,10 24.6666666,6.66666666 30,0 L30,30 C24.6666666,23.3333334 20,20 16,20 C12.3333334,20 8.66666666,20 5,20 L5,20 C2.23857626,20 0,17.7614238 0,15 L0,15 C0,12.2385762 2.23857626,10 5,10 Z" id="Path" stroke-linejoin="round"></path>
                    <polygon id="Path" points="6 20 10 32 18 32 14 20"></polygon>
                    <path d="M14,10 L14,20" id="Path"></path>
                </g>
                <g id="notebook" transform="translate(436.000000, 108.000000)" stroke="#2329D6" stroke-linecap="square">
                    <path d="M8,10 L18,10" id="Path"></path>
                    <path d="M26,0 L26,36 L2,36 C0.8954305,36 0,35.1045695 0,34 L0,2 C0,0.8954305 0.8954305,0 2,0 L26,0 Z" id="Path"></path>
                    <path d="M0,32 L0,30 C0,28.8954305 0.8954305,28 2,28 L26,28" id="Path"></path>
                </g>
                <g id="notebook-copy" transform="translate(857.000000, 99.000000)" stroke="#2329D6" stroke-linecap="square">
                    <path d="M8,10 L18,10" id="Path"></path>
                    <path d="M26,0 L26,36 L2,36 C0.8954305,36 0,35.1045695 0,34 L0,2 C0,0.8954305 0.8954305,0 2,0 L26,0 Z" id="Path"></path>
                    <path d="M0,32 L0,30 C0,28.8954305 0.8954305,28 2,28 L26,28" id="Path"></path>
                </g>
                <circle id="Oval" fill="#2329D6" cx="198.5" cy="170.5" r="2.5"></circle>
                <circle id="Oval-Copy" fill="#2329D6" cx="107.5" cy="135.5" r="2.5"></circle>
                <circle id="Oval-Copy-2" fill="#2329D6" cx="193.5" cy="70.5" r="2.5"></circle>
                <circle id="Oval-Copy-3" fill="#2329D6" cx="335.5" cy="70.5" r="2.5"></circle>
                <circle id="Oval-Copy-4" fill="#2329D6" cx="392.5" cy="135.5" r="2.5"></circle>
                <circle id="Oval-Copy-5" fill="#2329D6" cx="486.5" cy="88.5" r="2.5"></circle>
                <circle id="Oval-Copy-6" fill="#2329D6" cx="579.5" cy="183.5" r="2.5"></circle>
                <circle id="Oval-Copy-7" fill="#2329D6" cx="579.5" cy="80.5" r="2.5"></circle>
                <circle id="Oval-Copy-8" fill="#2329D6" cx="726.5" cy="93.5" r="2.5"></circle>
                <circle id="Oval-Copy-9" fill="#2329D6" cx="880.5" cy="198.5" r="2.5"></circle>
                <circle id="Oval-Copy-10" fill="#2329D6" cx="953.5" cy="117.5" r="2.5"></circle>
                <circle id="Oval-Copy-18" fill="#2329D6" cx="1102.5" cy="76.5" r="2.5"></circle>
                <circle id="Oval-Copy-19" fill="#2329D6" cx="1185.5" cy="7.5" r="2.5"></circle>
                <circle id="Oval-Copy-20" fill="#2329D6" cx="1216.5" cy="71.5" r="2.5"></circle>
                <circle id="Oval-Copy-21" fill="#2329D6" cx="1149.5" cy="176.5" r="2.5"></circle>
                <circle id="Oval-Copy-22" fill="#2329D6" cx="1077.5" cy="135.5" r="2.5"></circle>
                <circle id="Oval-Copy-23" fill="#2329D6" cx="1264.5" cy="179.5" r="2.5"></circle>
                <circle id="Oval-Copy-24" fill="#2329D6" cx="1342.5" cy="81.5" r="2.5"></circle>
                <circle id="Oval-Copy-25" fill="#2329D6" cx="1282.5" cy="7.5" r="2.5"></circle>
                <circle id="Oval-Copy-26" fill="#2329D6" cx="1434.5" cy="154.5" r="2.5"></circle>
                <circle id="Oval-Copy-27" fill="#2329D6" cx="1421.5" cy="25.5" r="2.5"></circle>
                <circle id="Oval-Copy-11" fill="#2329D6" cx="875.5" cy="58.5" r="2.5"></circle>
                <circle id="Oval-Copy-12" fill="#2329D6" cx="744.5" cy="4.5" r="2.5"></circle>
                <circle id="Oval-Copy-13" fill="#2329D6" cx="433.5" cy="10.5" r="2.5"></circle>
                <circle id="Oval-Copy-14" fill="#2329D6" cx="227.5" cy="9.5" r="2.5"></circle>
                <circle id="Oval-Copy-15" fill="#2329D6" cx="92.5" cy="16.5" r="2.5"></circle>
                <circle id="Oval-Copy-16" fill="#2329D6" cx="64.5" cy="210.5" r="2.5"></circle>
                <circle id="Oval-Copy-17" fill="#2329D6" cx="497.5" cy="149.5" r="2.5"></circle>
            </g>
        </g>
    </g>
</svg>