<?xml version="1.0" encoding="UTF-8"?>
<svg width="32px" height="54px" viewBox="0 0 32 54" version="1.1" xmlns="http://www.w3.org/2000/svg" xmlns:xlink="http://www.w3.org/1999/xlink">
    <!-- Generator: Sketch 53.2 (72643) - https://sketchapp.com -->
    <title>iconfinder_tree-green-nature-capsule_4_3199235</title>
    <desc>Created with Sketch.</desc>
    <g id="Page-1" stroke="none" stroke-width="1" fill="none" fill-rule="evenodd">
        <g id="iconfinder_tree-green-nature-capsule_4_3199235" fill-rule="nonzero">
            <path d="M15.61,35.77 C15.0577153,35.77 14.61,36.2177153 14.61,36.77 L14.61,52.3 C14.61,52.8522847 15.0577153,53.3 15.61,53.3 C16.1622847,53.3 16.61,52.8522847 16.61,52.3 L16.61,36.77 C16.61,36.2177153 16.1622847,35.77 15.61,35.77 Z" id="Path" fill="#995F5B"></path>
            <rect id="Rectangle" fill="#00BC98" transform="translate(15.735000, 4.295000) rotate(180.000000) translate(-15.735000, -4.295000) " x="7.17" y="0.87" width="17.13" height="6.85" rx="3.4"></rect>
            <rect id="Rectangle" fill="#00BC98" transform="translate(15.730000, 12.275000) rotate(180.000000) translate(-15.730000, -12.275000) " x="4.31" y="8.85" width="22.84" height="6.85" rx="3.4"></rect>
            <rect id="Rectangle" fill="#00BC98" transform="translate(15.735000, 36.265000) rotate(180.000000) translate(-15.735000, -36.265000) " x="7.17" y="32.84" width="17.13" height="6.85" rx="3.4"></rect>
            <rect id="Rectangle" fill="#00BC98" transform="translate(15.730000, 28.265000) rotate(180.000000) translate(-15.730000, -28.265000) " x="4.31" y="24.84" width="22.84" height="6.85" rx="3.4"></rect>
            <rect id="Rectangle" fill="#00BC98" transform="translate(15.735000, 20.275000) rotate(180.000000) translate(-15.735000, -20.275000) " x="0.32" y="16.85" width="30.83" height="6.85" rx="3.4"></rect>
        </g>
    </g>
</svg>