<svg height="512pt" viewBox="-99 0 512 512.0002" width="512pt" xmlns="http://www.w3.org/2000/svg"><path d="m3.996094 209.640625c8.140625 71.722656 81.664062 122.5625 119.097656 74.464844l.175781-.230469c1.605469-2.074219 3.035157-4.207031 4.320313-6.398438 24.097656-41.40625-15.726563-94.4375-101.859375-89.707031-14.089844.757813-22.699219 6.804688-21.734375 21.871094zm0 0" fill="#8fde56" fill-rule="evenodd"/><path d="m3.996094 209.640625c8.140625 71.722656 81.664062 122.5625 119.097656 74.464844l.175781-.230469c1.253907-1.636719 2.421875-3.300781 3.472657-4.996094-38.804688 13.636719-90.417969-31.449218-97.1875-90.847656 0-.144531 0-.292969-.03125-.4375-1.253907.058594-2.507813.117188-3.792969.175781-14.089844.757813-22.699219 6.804688-21.734375 21.871094zm0 0" fill="#47a831" fill-rule="evenodd"/><path d="m310.003906 209.640625c-8.140625 71.722656-81.667968 122.5625-119.101562 74.464844l-.175782-.230469c-1.601562-2.074219-3.0625-4.207031-4.316406-6.398438-24.101562-41.40625 15.726563-94.4375 101.855469-89.707031 14.089844.757813 22.667969 6.804688 21.738281 21.871094zm0 0" fill="#8fde56" fill-rule="evenodd"/><path d="m310.003906 209.640625c-8.140625 71.722656-81.667968 122.5625-119.101562 74.464844l-.175782-.230469c-1.28125-1.636719-2.421874-3.300781-3.46875-4.996094 38.773438 13.636719 90.417969-31.449218 97.15625-90.847656.03125-.144531.03125-.292969.03125-.4375 1.28125.058594 2.535157.117188 3.820313.175781 14.089844.757813 22.667969 6.804688 21.738281 21.871094zm0 0" fill="#47a831" fill-rule="evenodd"/><path d="m236.421875 247.414062c-2.199219-3.664062-6.949219-4.847656-10.609375-2.648437l-61.082031 36.730469v-103.65625c0-4.273438-3.460938-7.734375-7.730469-7.734375-4.273438 0-7.734375 3.460937-7.734375 7.734375v103.65625l-61.078125-36.726563c-3.664062-2.203125-8.414062-1.015625-10.613281 2.644531-2.199219 3.664063-1.015625 8.417969 2.644531 10.621094l69.046875 41.519532v45.117187c0 4.273437 3.460937 7.738281 7.734375 7.738281 4.269531 0 7.730469-3.464844 7.730469-7.738281v-45.117187l69.046875-41.519532c3.660156-2.203125 4.847656-6.957031 2.644531-10.621094zm0 0" fill="#178035"/><g fill-rule="evenodd"><path d="m295.179688 398.433594-137.917969-20.703125-137.886719 20.703125 14.761719 87.78125c2.332031 13.929687 13.011719 25.785156 29.613281 25.785156h187.023438c16.628906 0 27.277343-11.855469 29.613281-25.785156zm0 0" fill="#b3adad"/><path d="m287.097656 344.671875h-272.335937c-8.136719 0-14.761719 6.660156-14.761719 14.777344v24.207031c0 8.117188 6.625 14.777344 14.761719 14.777344h284.472656c8.113281 0 14.765625-6.660156 14.765625-14.777344v-24.207031c0-8.117188-6.652344-14.777344-14.765625-14.777344zm0 0" fill="#e6e6e6"/><path d="m18.816406 383.65625v-24.207031c0-8.117188 6.652344-14.777344 14.792969-14.777344h-18.847656c-8.136719 0-14.761719 6.660156-14.761719 14.777344v24.207031c0 8.117188 6.625 14.777344 14.761719 14.777344h13.160156c-5.195313-2.308594-9.105469-8.761719-9.105469-14.777344zm0 0" fill="#adafb3"/><path d="m58.703125 486.214844-14.761719-87.78125 4.054688 24.0625 1.722656 10.308594c0-5.546876 4.433594-10.101563 9.917969-10.308594h231.488281l4.054688-24.0625h-275.808594l14.765625 87.78125c2.332031 13.929687 13.011719 25.785156 29.613281 25.785156h24.566406c-16.628906 0-27.28125-11.855469-29.613281-25.785156zm0 0" fill="#757a85"/><path d="m157 0c-14.9375.0585938-58.414062 26.601562-58.414062 67.542969 9.835937 38.605469 39.59375 36.386719 58.414062 55.863281 18.789062-19.503906 49.484375-26.628906 58.410156-55.863281 0-38.660157-43.007812-67.6289065-58.410156-67.542969zm0 0" fill="#ff698f"/><path d="m157 101.417969c-17.15625 17.785156-32.242188 42.78125-41.226562 76.160156l-.058594.261719h82.570312c26.78125 0 55.640625-25.753906 55.757813-62.140625l.085937-19.15625c0-19.769531-15.960937-32.5625-34.3125-29.730469-19.257812 2.601562-42.480468 13.523438-62.816406 34.605469zm0 0" fill="#cf4b82"/><path d="m94.152344 66.816406c-18.324219-2.835937-34.285156 9.957032-34.285156 29.726563l.058593 19.15625c.117188 36.386719 29.003907 62.144531 55.789063 62.144531 61.910156 0 60.511718-54.140625 41.285156-76.421875-20.335938-21.085937-43.5625-32.007813-62.847656-34.605469zm0 0" fill="#cf4b82"/><path d="m145.765625 114.53125c-12.398437 16.324219-23.019531 37.175781-29.992187 63.046875.085937-.292969.171874-.613281.261718-.933594.699219-2.570312 1.429688-5.082031 2.21875-7.5625 6.882813-21.992187 16.511719-40.039062 27.511719-54.550781zm-13.214844 63.308594c7.292969-24.558594 18-44.355469 30.3125-59.863282 3.003907-3.796874 6.097657-7.300781 9.25-10.570312 11.847657-12.292969 24.683594-21.140625 37.140625-26.867188 8.929688-4.117187 17.652344-6.65625 25.707032-7.738281 2.769531-.4375 5.484374-.496093 8.082031-.234375-6.1875-4.875-14.414063-7.09375-23.226563-5.753906-1.429687.207031-2.917968.441406-4.40625.730469-18.351562 3.59375-39.621094 14.371093-58.410156 33.875-3.851562 4.003906-7.617188 8.351562-11.234375 13.113281-12.398437 16.324219-23.019531 37.175781-29.992187 63.046875l-.058594.261719zm0 0" fill="#9e1b69"/><path d="m94.152344 66.816406c-18.324219-2.835937-34.285156 9.957032-34.285156 29.726563l.03125 3.738281c5.71875-10.746094 17.59375-16.644531 30.664062-14.628906 6.128906.816406 12.691406 2.511718 19.402344 5.078125 12.050781 4.617187 24.625 12.121093 36.53125 22.835937 3.238281-4.175781 6.621094-8.085937 10.066406-11.679687.144531-.175781.289062-.320313.4375-.464844-14.441406-14.953125-30.316406-24.792969-45.226562-30.167969-4.492188-1.632812-8.925782-2.863281-13.1875-3.707031-1.488282-.292969-2.976563-.527344-4.433594-.730469zm0 0" fill="#9e1b69"/><path d="m102.148438 47.601562c-2.25 6.160157-3.5625 12.847657-3.5625 19.945313 4.261718.84375 8.695312 2.070313 13.1875 3.707031 14.910156 5.375 30.78125 15.214844 45.226562 30.167969 18.789062-19.507813 40.058594-30.285156 58.410156-33.875 0-6.921875-1.398437-13.550781-3.761718-19.769531-15.289063 3.765625-32.269532 12.4375-48.027344 26.777344-6.359375 6.191406-7.730469 2.976562-12.75 0-12.867188-11.273438-26.082032-19.390626-38.804688-23.976563-3.382812-1.226563-6.679687-2.21875-9.917968-2.976563zm0 0" fill="#cf4b82"/></g></svg>